<?xml version="1.0" encoding="utf-8"?>
<!-- Generator: Adobe Illustrator 27.0.0, SVG Export Plug-In . SVG Version: 6.00 Build 0)  -->
<svg version="1.1" id="TAT" xmlns="http://www.w3.org/2000/svg" xmlns:xlink="http://www.w3.org/1999/xlink" x="0px" y="0px"
	 viewBox="0 0 1280 1280" style="enable-background:new 0 0 1280 1280;" xml:space="preserve">
<style type="text/css">
	.st0{fill:#3A3B3B;}
</style>
<path id="下半部" class="st0" d="M683.9,628.4v237.1c0,2.2-1.8,4-4,4h-30.8c-25.6,0-46.3-20.7-46.3-46.3V709.5L683.9,628.4z"/>
<path id="上半部" class="st0" d="M847.8,416.6c0,41.8-33.9,75.6-75.6,75.6h-88.3v37.1l-81.1,81.1V492.2H438.4
	c-1.7,0-3.2-0.7-4.3-1.8c-1.1-1.1-1.8-2.6-1.8-4.3c0-41.8,33.9-75.6,75.6-75.6h333.8c1.7,0,3.2,0.7,4.3,1.8
	C847.1,413.3,847.8,414.9,847.8,416.6z"/>
</svg>
